<svg width="20" height="20" viewBox="0 0 20 20" fill="none" xmlns="http://www.w3.org/2000/svg">
<path d="M15.3982 8.25534L15.7517 7.90179L15.6906 7.84068C15.9835 7.2525 15.8781 6.51997 15.3956 6.03227C14.7837 5.41379 13.7871 5.41652 13.1732 6.03038L13.1731 6.03053L8.57127 10.6365L6.82865 8.89388C6.8283 8.89352 6.82794 8.89316 6.82758 8.8928C6.21322 8.27302 5.21879 8.28597 4.60816 8.8901C3.98968 9.502 3.99241 10.4986 4.60627 11.1125L7.46153 13.9677C7.46188 13.9681 7.46224 13.9685 7.4626 13.9688C8.07459 14.5862 9.07042 14.5831 9.68391 13.9696L15.3982 8.25534ZM0.5 2.85714C0.5 1.55739 1.55739 0.5 2.85714 0.5H17.1429C18.4426 0.5 19.5 1.55739 19.5 2.85714V17.1429C19.5 18.4426 18.4426 19.5 17.1429 19.5H2.85714C1.55739 19.5 0.5 18.4426 0.5 17.1429V2.85714Z" fill="#C0C0C0" stroke="#C0C0C0"/>
</svg>
