<svg width="22" height="22" viewBox="0 0 22 22" fill="none" xmlns="http://www.w3.org/2000/svg">
<rect x="0.5" y="0.5" width="21" height="21" rx="10.5" fill="#F6F9FE"/>
<path fill-rule="evenodd" clip-rule="evenodd" d="M1 11C1 5.47715 5.47715 1 11 1C16.5228 1 21 5.47715 21 11C21 16.5228 16.5228 21 11 21C5.47715 21 1 16.5228 1 11ZM14.5286 15.4715L11.0001 11.9429L7.47145 15.4715L6.52865 14.5286L10.0572 11.0001L6.52865 7.47145L7.47145 6.52865L11.0001 10.0572L14.5286 6.52865L15.4715 7.47145L11.9429 11.0001L15.4715 14.5286L14.5286 15.4715Z" fill="#F25D5D"/>
<rect x="0.5" y="0.5" width="21" height="21" rx="10.5" stroke="#F25D5D"/>
</svg>

