<svg width="20" height="16" viewBox="0 0 20 16" fill="none" xmlns="http://www.w3.org/2000/svg">
<path d="M11.25 1C11.25 0.446875 10.6914 0 10 0C9.30859 0 8.75 0.446875 8.75 1V8.58438L5.88281 6.29063C5.39453 5.9 4.60156 5.9 4.11328 6.29063C3.625 6.68125 3.625 7.31563 4.11328 7.70625L9.11328 11.7063C9.60156 12.0969 10.3945 12.0969 10.8828 11.7063L15.8828 7.70625C16.3711 7.31563 16.3711 6.68125 15.8828 6.29063C15.3945 5.9 14.6016 5.9 14.1133 6.29063L11.25 8.58438V1ZM2.5 11C1.12109 11 0 11.8969 0 13V14C0 15.1031 1.12109 16 2.5 16H17.5C18.8789 16 20 15.1031 20 14V13C20 11.8969 18.8789 11 17.5 11H13.5352L11.7656 12.4156C10.7891 13.1969 9.20703 13.1969 8.23047 12.4156L6.46484 11H2.5ZM16.875 14.25C16.3555 14.25 15.9375 13.9156 15.9375 13.5C15.9375 13.0844 16.3555 12.75 16.875 12.75C17.3945 12.75 17.8125 13.0844 17.8125 13.5C17.8125 13.9156 17.3945 14.25 16.875 14.25Z" fill="black"/>
</svg>
