<svg width="15" height="15" viewBox="0 0 15 15" fill="none" xmlns="http://www.w3.org/2000/svg">
<g clip-path="url(#clip0_430_859)">
<path d="M14.6221 0.184688C14.8594 0.360469 15 0.641719 15 0.937617V3.04699V10.7814C15 12.0763 13.7402 13.1251 12.1875 13.1251C10.6348 13.1251 9.375 12.0763 9.375 10.7814C9.375 9.48645 10.6348 8.43762 12.1875 8.43762C12.5156 8.43762 12.832 8.48449 13.125 8.57238V4.30676L5.625 6.55676V12.6564C5.625 13.9513 4.36523 15.0001 2.8125 15.0001C1.25977 15.0001 0 13.9513 0 12.6564C0 11.3614 1.25977 10.3126 2.8125 10.3126C3.14062 10.3126 3.45703 10.3595 3.75 10.4474V5.85949V3.75012C3.75 3.33703 4.02246 2.97082 4.41797 2.8507L13.793 0.0382033C14.0771 -0.0467577 14.3848 0.00597669 14.6221 0.184688Z" fill="#6C6A6A"/>
</g>
<defs>
<clipPath id="clip0_430_859">
<rect width="15" height="15" fill="white"/>
</clipPath>
</defs>
</svg>
