<svg width="15" height="15" viewBox="0 0 15 15" fill="none" xmlns="http://www.w3.org/2000/svg">
<path d="M1.39453 8.8472L6.68848 14.6266C6.9082 14.8664 7.19824 15 7.5 15C7.80176 15 8.0918 14.8664 8.31152 14.6266L13.6055 8.8472C14.4961 7.87768 15 6.51763 15 5.0959V4.8972C15 2.50254 13.5205 0.460745 11.502 0.0667732C10.166 -0.193591 8.80664 0.316859 7.85156 1.43368L7.5 1.84478L7.14844 1.43368C6.19336 0.316859 4.83398 -0.193591 3.49805 0.0667732C1.47949 0.460745 0 2.50254 0 4.8972V5.0959C0 6.51763 0.503906 7.87768 1.39453 8.8472Z" fill="#F25D5D"/>
</svg>
