<svg width="15" height="15" viewBox="0 0 15 15" fill="none" xmlns="http://www.w3.org/2000/svg">
<path d="M11.637 6.27989L11.9906 5.92634L11.9176 5.85337C12.1124 5.38064 12.0129 4.81771 11.6356 4.43629C11.1275 3.92272 10.3005 3.92545 9.79154 4.43439L9.79138 4.43455L6.42841 7.80055L5.21035 6.58249C5.21 6.58214 5.20966 6.58179 5.20931 6.58144C4.69875 6.06654 3.87393 6.07837 3.36821 6.57871C2.85464 7.08682 2.85737 7.91381 3.36631 8.42275L5.50728 10.5637C5.50765 10.5641 5.50802 10.5644 5.50838 10.5648C6.01658 11.0773 6.84274 11.0742 7.35132 10.5656L11.637 6.27989ZM0.5 2.14286C0.5 1.23708 1.23708 0.5 2.14286 0.5H12.8571C13.7629 0.5 14.5 1.23708 14.5 2.14286V12.8571C14.5 13.7629 13.7629 14.5 12.8571 14.5H2.14286C1.23708 14.5 0.5 13.7629 0.5 12.8571V2.14286Z" fill="#C0C0C0" stroke="#C0C0C0"/>
</svg>
