<svg width="25" height="25" viewBox="0 0 25 25" fill="none" xmlns="http://www.w3.org/2000/svg">
<path d="M4.10156 24.5169C3.35938 25.0312 2.32031 25.1483 1.4375 24.8033C0.554687 24.4583 0 23.7228 0 22.9157V2.08613C0 1.27898 0.5625 0.543439 1.4375 0.19845C2.3125 -0.146539 3.35156 -0.0358825 4.10156 0.484856L19.1016 10.8996L20 11.5245V2.08613C20 0.933992 21.1172 0.00317275 22.5 0.00317275C23.8828 0.00317275 25 0.933992 25 2.08613V22.9157C25 24.0678 23.8828 24.9986 22.5 24.9986C21.1172 24.9986 20 24.0678 20 22.9157V13.4773L19.1016 14.1022L4.10156 24.5169Z" fill="#CB5DF2"/>
</svg>
