<svg width="25" height="25" viewBox="0 0 25 25" fill="none" xmlns="http://www.w3.org/2000/svg">
<path d="M20.8984 24.5169C21.6406 25.0312 22.6797 25.1483 23.5625 24.8033C24.4453 24.4583 25 23.7228 25 22.9157V2.08613C25 1.27898 24.4375 0.543439 23.5625 0.19845C22.6875 -0.146539 21.6484 -0.0358825 20.8984 0.484856L5.89844 10.8996L5 11.5245V2.08613C5 0.933992 3.88281 0.00317275 2.5 0.00317275C1.11719 0.00317275 0 0.933992 0 2.08613V22.9157C0 24.0678 1.11719 24.9986 2.5 24.9986C3.88281 24.9986 5 24.0678 5 22.9157V13.4773L5.89844 14.1022L20.8984 24.5169Z" fill="#CB5DF2"/>
</svg>
