<svg width="100" height="100" viewBox="0 0 100 100" fill="none" xmlns="http://www.w3.org/2000/svg">
<g clip-path="url(#clip0_125_989)">
<rect width="100" height="100" fill="white"/>
<path d="M77.9297 75.0391C73.6133 67.5391 65.5078 62.5 56.25 62.5H43.75C34.4922 62.5 26.3867 67.5391 22.0703 75.0391C28.9453 82.6953 38.9062 87.5 50 87.5C61.0938 87.5 71.0547 82.6758 77.9297 75.0391ZM100 50C100 77.6172 77.6172 100 50 100C22.3828 100 0 77.6172 0 50C0 22.3828 22.3828 0 50 0C77.6172 0 100 22.3828 100 50ZM50 53.125C57.7734 53.125 64.0625 46.8359 64.0625 39.0625C64.0625 31.2891 57.7734 25 50 25C42.2266 25 35.9375 31.2891 35.9375 39.0625C35.9375 46.8359 42.2266 53.125 50 53.125Z" fill="#6C6A6A"/>
</g>
<defs>
<clipPath id="clip0_125_989">
<rect width="100" height="100" fill="white"/>
</clipPath>
</defs>
</svg>
