<svg width="20" height="15" viewBox="0 0 20 15" fill="none" xmlns="http://www.w3.org/2000/svg">
<path d="M11.25 0.9375C11.25 0.418945 10.6914 0 10 0C9.30859 0 8.75 0.418945 8.75 0.9375V8.04785L5.88281 5.89746C5.39453 5.53125 4.60156 5.53125 4.11328 5.89746C3.625 6.26367 3.625 6.8584 4.11328 7.22461L9.11328 10.9746C9.60156 11.3408 10.3945 11.3408 10.8828 10.9746L15.8828 7.22461C16.3711 6.8584 16.3711 6.26367 15.8828 5.89746C15.3945 5.53125 14.6016 5.53125 14.1133 5.89746L11.25 8.04785V0.9375ZM2.5 10.3125C1.12109 10.3125 0 11.1533 0 12.1875V13.125C0 14.1592 1.12109 15 2.5 15H17.5C18.8789 15 20 14.1592 20 13.125V12.1875C20 11.1533 18.8789 10.3125 17.5 10.3125H13.5352L11.7656 11.6396C10.7891 12.3721 9.20703 12.3721 8.23047 11.6396L6.46484 10.3125H2.5ZM16.875 13.3594C16.3555 13.3594 15.9375 13.0459 15.9375 12.6562C15.9375 12.2666 16.3555 11.9531 16.875 11.9531C17.3945 11.9531 17.8125 12.2666 17.8125 12.6562C17.8125 13.0459 17.3945 13.3594 16.875 13.3594Z" fill="#6C6A6A" fill-opacity="0.5"/>
</svg>
